<svg width="210" height="210" viewBox="0 0 210 210" fill="none" xmlns="http://www.w3.org/2000/svg">
<path d="M105 1C120.952 1 136.691 4.66971 150.998 11.7252C165.305 18.7808 177.798 29.033 187.509 41.6888C197.22 54.3446 203.89 69.0648 207.002 84.7106C210.114 100.356 209.585 116.508 205.456 131.917C201.328 147.326 193.709 161.578 183.191 173.572C172.673 185.566 159.537 194.979 144.799 201.083C130.061 207.188 114.116 209.821 98.1981 208.777C82.2799 207.734 66.8151 203.043 53 195.067L67.56 169.848C77.5069 175.591 88.6415 178.968 100.103 179.72C111.564 180.471 123.044 178.575 133.655 174.18C144.267 169.785 153.725 163.007 161.298 154.372C168.871 145.736 174.356 135.475 177.329 124.38C180.301 113.286 180.682 101.657 178.441 90.3916C176.2 79.1267 171.398 68.5281 164.406 59.4159C157.414 50.3038 148.42 42.9221 138.119 37.8422C127.817 32.7622 116.486 30.12 105 30.12L105 1Z" fill="#3B82F6" stroke="#1E293B" stroke-width="2"/>
<path d="M4.54372 78.0828C10.4691 55.9689 23.5258 36.4282 41.6888 22.4913C59.8518 8.55429 82.106 1 105 1L105 30.12C88.5163 30.12 72.4933 35.5591 59.4159 45.5937C46.3386 55.6283 36.9378 69.6976 32.6715 85.6196L4.54372 78.0828Z" fill="#14B8A6" stroke="#1E293B" stroke-width="2"/>
<path d="M53 195.067C33.1732 183.62 17.6777 165.95 8.91653 144.799C0.155389 123.648 -1.38168 100.197 4.54372 78.0828L32.6715 85.6196C28.4052 101.542 29.5119 118.426 35.8199 133.655C42.1279 148.884 53.2847 161.606 67.56 169.848L53 195.067Z" fill="#F59E0B" stroke="#1E293B" stroke-width="2"/>
</svg>
