<svg width="60" height="61" viewBox="0 0 60 61" fill="none" xmlns="http://www.w3.org/2000/svg">
<g filter="url(#filter0_d_204_3498)">
<path fill-rule="evenodd" clip-rule="evenodd" d="M35.965 30.8337C35.6204 29.8587 34.9818 29.0145 34.1374 28.4174C33.293 27.8204 32.2842 27.4998 31.25 27.5V26.25H28.75V27.5C27.4239 27.5 26.1521 28.0268 25.2145 28.9645C24.2768 29.9021 23.75 31.1739 23.75 32.5C23.75 33.8261 24.2768 35.0979 25.2145 36.0355C26.1521 36.9732 27.4239 37.5 28.75 37.5V42.5C27.6625 42.5 26.7363 41.8062 26.3913 40.8337C26.3401 40.6746 26.2575 40.5274 26.1484 40.4008C26.0393 40.2741 25.906 40.1707 25.7562 40.0965C25.6064 40.0223 25.4433 39.9789 25.2765 39.9688C25.1096 39.9588 24.9425 39.9823 24.7849 40.038C24.6273 40.0936 24.4825 40.1804 24.359 40.293C24.2355 40.4056 24.1358 40.5419 24.0659 40.6937C23.996 40.8455 23.9573 41.0098 23.9519 41.1768C23.9466 41.3439 23.9749 41.5103 24.035 41.6663C24.3796 42.6413 25.0182 43.4855 25.8626 44.0826C26.707 44.6796 27.7158 45.0002 28.75 45V46.25H31.25V45C32.5761 45 33.8478 44.4732 34.7855 43.5355C35.7232 42.5979 36.25 41.3261 36.25 40C36.25 38.6739 35.7232 37.4021 34.7855 36.4645C33.8478 35.5268 32.5761 35 31.25 35V30C31.767 29.9999 32.2714 30.16 32.6936 30.4585C33.1158 30.7569 33.4351 31.1788 33.6075 31.6663C33.7179 31.9789 33.948 32.2348 34.2471 32.3778C34.3952 32.4486 34.5558 32.4896 34.7197 32.4983C34.8837 32.5071 35.0477 32.4834 35.2025 32.4288C35.3573 32.3741 35.4998 32.2895 35.6219 32.1797C35.744 32.07 35.8433 31.9373 35.9141 31.7892C35.9849 31.6411 36.0258 31.4805 36.0346 31.3165C36.0433 31.1526 36.0197 30.9885 35.965 30.8337ZM28.75 30C28.087 30 27.4511 30.2634 26.9822 30.7322C26.5134 31.2011 26.25 31.837 26.25 32.5C26.25 33.163 26.5134 33.7989 26.9822 34.2678C27.4511 34.7366 28.087 35 28.75 35V30ZM31.25 42.5C31.913 42.5 32.5489 42.2366 33.0178 41.7678C33.4866 41.2989 33.75 40.663 33.75 40C33.75 39.337 33.4866 38.7011 33.0178 38.2322C32.5489 37.7634 31.913 37.5 31.25 37.5V42.5Z" fill="url(#paint0_linear_204_3498)"/>
<path fill-rule="evenodd" clip-rule="evenodd" d="M16.4412 10.7763C19.5087 9.275 24.5412 7.5 30.0487 7.5C35.4412 7.5 40.3412 9.20125 43.3925 10.6825L43.565 10.7662C44.485 11.2212 45.2275 11.6513 45.75 12L41.1325 18.75C51.7775 29.6325 60 52.4963 30.0487 52.4963C0.097476 52.4963 8.09873 30.0475 18.8362 18.75L14.2487 12C14.6025 11.7688 15.0512 11.5 15.5862 11.215C15.8512 11.0725 16.1362 10.9254 16.4412 10.7763ZM38.165 18.6613L41.8612 13.2575C38.4237 13.505 34.3337 14.3125 30.3962 15.4525C27.5837 16.265 24.4587 16.1412 21.565 15.6075C20.8357 15.4725 20.1115 15.3115 19.3937 15.125L21.7937 18.6588C26.9375 20.49 33.02 20.49 38.165 18.6613ZM20.35 20.7875C26.3687 23.1125 33.6025 23.1125 39.6212 20.785C42.1329 23.4339 44.2345 26.4434 45.8562 29.7137C47.5462 33.1612 48.4662 36.6075 48.3162 39.5775C48.1712 42.4438 47.0437 44.8925 44.4687 46.7125C41.785 48.6087 37.2712 49.9963 30.0475 49.9963C22.8162 49.9963 18.2812 48.6325 15.5725 46.7575C12.9787 44.9612 11.84 42.545 11.6787 39.7175C11.51 36.78 12.41 33.3512 14.0937 29.88C15.7 26.57 17.9412 23.3837 20.35 20.7875ZM18.9125 12.395C19.9125 12.6925 20.9575 12.9512 22.0175 13.1475C24.705 13.6425 27.4 13.715 29.7 13.0487C32.3802 12.2676 35.1062 11.6535 37.8625 11.21C35.5625 10.5175 32.8725 10 30.0475 10C25.7412 10 21.725 11.2013 18.9125 12.395Z" fill="url(#paint1_linear_204_3498)"/>
</g>
<defs>
<filter id="filter0_d_204_3498" x="-4" y="0" width="68" height="68" filterUnits="userSpaceOnUse" color-interpolation-filters="sRGB">
<feFlood flood-opacity="0" result="BackgroundImageFix"/>
<feColorMatrix in="SourceAlpha" type="matrix" values="0 0 0 0 0 0 0 0 0 0 0 0 0 0 0 0 0 0 127 0" result="hardAlpha"/>
<feOffset dy="4"/>
<feGaussianBlur stdDeviation="2"/>
<feComposite in2="hardAlpha" operator="out"/>
<feColorMatrix type="matrix" values="0 0 0 0 1 0 0 0 0 1 0 0 0 0 1 0 0 0 0.35 0"/>
<feBlend mode="normal" in2="BackgroundImageFix" result="effect1_dropShadow_204_3498"/>
<feBlend mode="normal" in="SourceGraphic" in2="effect1_dropShadow_204_3498" result="shape"/>
</filter>
<linearGradient id="paint0_linear_204_3498" x1="30" y1="26.25" x2="30" y2="46.25" gradientUnits="userSpaceOnUse">
<stop stop-color="#00D8FF"/>
<stop offset="1" stop-color="#3F80EA"/>
</linearGradient>
<linearGradient id="paint1_linear_204_3498" x1="29.9967" y1="7.5" x2="29.9967" y2="52.4963" gradientUnits="userSpaceOnUse">
<stop stop-color="#00D8FF"/>
<stop offset="1" stop-color="#3F80EA"/>
</linearGradient>
</defs>
</svg>
