<svg width="36" height="36" viewBox="0 0 36 36" fill="none" xmlns="http://www.w3.org/2000/svg">
<path d="M13.5 7.49977C13.1022 7.49977 12.7206 7.6578 12.4393 7.93911C12.158 8.22041 12 8.60194 12 8.99977C12 9.39759 12.158 9.77912 12.4393 10.0604C12.7206 10.3417 13.1022 10.4998 13.5 10.4998C13.8978 10.4998 14.2794 10.3417 14.5607 10.0604C14.842 9.77912 15 9.39759 15 8.99977C15 8.60194 14.842 8.22041 14.5607 7.93911C14.2794 7.6578 13.8978 7.49977 13.5 7.49977ZM9.255 7.49977C9.5649 6.62147 10.1396 5.86092 10.8999 5.32295C11.6602 4.78499 12.5686 4.49609 13.5 4.49609C14.4314 4.49609 15.3398 4.78499 16.1001 5.32295C16.8604 5.86092 17.4351 6.62147 17.745 7.49977H28.5C28.8978 7.49977 29.2794 7.6578 29.5607 7.93911C29.842 8.22041 30 8.60194 30 8.99977C30 9.39759 29.842 9.77912 29.5607 10.0604C29.2794 10.3417 28.8978 10.4998 28.5 10.4998H17.745C17.4351 11.3781 16.8604 12.1386 16.1001 12.6766C15.3398 13.2146 14.4314 13.5034 13.5 13.5034C12.5686 13.5034 11.6602 13.2146 10.8999 12.6766C10.1396 12.1386 9.5649 11.3781 9.255 10.4998H7.5C7.10218 10.4998 6.72064 10.3417 6.43934 10.0604C6.15804 9.77912 6 9.39759 6 8.99977C6 8.60194 6.15804 8.22041 6.43934 7.93911C6.72064 7.6578 7.10218 7.49977 7.5 7.49977H9.255ZM22.5 16.4998C22.1022 16.4998 21.7206 16.6578 21.4393 16.9391C21.158 17.2204 21 17.6019 21 17.9998C21 18.3976 21.158 18.7791 21.4393 19.0604C21.7206 19.3417 22.1022 19.4998 22.5 19.4998C22.8978 19.4998 23.2794 19.3417 23.5607 19.0604C23.842 18.7791 24 18.3976 24 17.9998C24 17.6019 23.842 17.2204 23.5607 16.9391C23.2794 16.6578 22.8978 16.4998 22.5 16.4998ZM18.255 16.4998C18.5649 15.6215 19.1396 14.8609 19.8999 14.323C20.6602 13.785 21.5686 13.4961 22.5 13.4961C23.4314 13.4961 24.3398 13.785 25.1001 14.323C25.8604 14.8609 26.4351 15.6215 26.745 16.4998H28.5C28.8978 16.4998 29.2794 16.6578 29.5607 16.9391C29.842 17.2204 30 17.6019 30 17.9998C30 18.3976 29.842 18.7791 29.5607 19.0604C29.2794 19.3417 28.8978 19.4998 28.5 19.4998H26.745C26.4351 20.3781 25.8604 21.1386 25.1001 21.6766C24.3398 22.2146 23.4314 22.5034 22.5 22.5034C21.5686 22.5034 20.6602 22.2146 19.8999 21.6766C19.1396 21.1386 18.5649 20.3781 18.255 19.4998H7.5C7.10218 19.4998 6.72064 19.3417 6.43934 19.0604C6.15804 18.7791 6 18.3976 6 17.9998C6 17.6019 6.15804 17.2204 6.43934 16.9391C6.72064 16.6578 7.10218 16.4998 7.5 16.4998H18.255ZM13.5 25.4998C13.1022 25.4998 12.7206 25.6578 12.4393 25.9391C12.158 26.2204 12 26.6019 12 26.9998C12 27.3976 12.158 27.7791 12.4393 28.0604C12.7206 28.3417 13.1022 28.4998 13.5 28.4998C13.8978 28.4998 14.2794 28.3417 14.5607 28.0604C14.842 27.7791 15 27.3976 15 26.9998C15 26.6019 14.842 26.2204 14.5607 25.9391C14.2794 25.6578 13.8978 25.4998 13.5 25.4998ZM9.255 25.4998C9.5649 24.6215 10.1396 23.8609 10.8999 23.323C11.6602 22.785 12.5686 22.4961 13.5 22.4961C14.4314 22.4961 15.3398 22.785 16.1001 23.323C16.8604 23.8609 17.4351 24.6215 17.745 25.4998H28.5C28.8978 25.4998 29.2794 25.6578 29.5607 25.9391C29.842 26.2204 30 26.6019 30 26.9998C30 27.3976 29.842 27.7791 29.5607 28.0604C29.2794 28.3417 28.8978 28.4998 28.5 28.4998H17.745C17.4351 29.3781 16.8604 30.1386 16.1001 30.6766C15.3398 31.2146 14.4314 31.5034 13.5 31.5034C12.5686 31.5034 11.6602 31.2146 10.8999 30.6766C10.1396 30.1386 9.5649 29.3781 9.255 28.4998H7.5C7.10218 28.4998 6.72064 28.3417 6.43934 28.0604C6.15804 27.7791 6 27.3976 6 26.9998C6 26.6019 6.15804 26.2204 6.43934 25.9391C6.72064 25.6578 7.10218 25.4998 7.5 25.4998H9.255Z" fill="white"/>
</svg>
