<svg width="28" height="349" viewBox="0 0 28 349" fill="none" xmlns="http://www.w3.org/2000/svg">
<path d="M28 148.5V157.5C27.9062 157.32 27.8047 157.129 27.6953 156.926C27.5859 156.723 27.4648 156.523 27.332 156.328C27.1992 156.133 27.0625 155.938 26.9219 155.742C26.7812 155.547 26.6406 155.383 26.5 155.25V151.5L16 156.75L5.5 151.5V162H16.75L17.5 163.5H4V148.5H28ZM26.3242 150H5.67578L16 155.168L26.3242 150ZM25.1875 162.598C25.6172 162.824 26.0039 163.102 26.3477 163.43C26.6914 163.758 26.9883 164.125 27.2383 164.531C27.4883 164.938 27.6758 165.367 27.8008 165.82C27.9258 166.273 27.9922 166.75 28 167.25V168H26.5V167.25C26.5 166.734 26.4023 166.25 26.207 165.797C26.0117 165.344 25.7422 164.949 25.3984 164.613C25.0547 164.277 24.6562 164.008 24.2031 163.805C23.75 163.602 23.2656 163.5 22.75 163.5C22.2344 163.5 21.75 163.598 21.2969 163.793C20.8438 163.988 20.4453 164.258 20.1016 164.602C19.7578 164.945 19.4883 165.344 19.293 165.797C19.0977 166.25 19 166.734 19 167.25V168H17.5V167.25C17.5 166.758 17.5625 166.285 17.6875 165.832C17.8125 165.379 18 164.949 18.25 164.543C18.5 164.137 18.7969 163.77 19.1406 163.441C19.4844 163.113 19.875 162.832 20.3125 162.598C19.8906 162.238 19.5664 161.812 19.3398 161.32C19.1133 160.828 19 160.305 19 159.75C19 159.234 19.0977 158.75 19.293 158.297C19.4883 157.844 19.7539 157.449 20.0898 157.113C20.4258 156.777 20.8242 156.508 21.2852 156.305C21.7461 156.102 22.2344 156 22.75 156C23.2656 156 23.75 156.098 24.2031 156.293C24.6562 156.488 25.0508 156.758 25.3867 157.102C25.7227 157.445 25.9922 157.844 26.1953 158.297C26.3984 158.75 26.5 159.234 26.5 159.75C26.5 160.297 26.3867 160.816 26.1602 161.309C25.9336 161.801 25.6094 162.23 25.1875 162.598ZM20.5 159.75C20.5 160.062 20.5586 160.355 20.6758 160.629C20.793 160.902 20.9531 161.141 21.1562 161.344C21.3594 161.547 21.5977 161.707 21.8711 161.824C22.1445 161.941 22.4375 162 22.75 162C23.0625 162 23.3555 161.941 23.6289 161.824C23.9023 161.707 24.1406 161.547 24.3438 161.344C24.5469 161.141 24.707 160.902 24.8242 160.629C24.9414 160.355 25 160.062 25 159.75C25 159.438 24.9414 159.145 24.8242 158.871C24.707 158.598 24.5469 158.359 24.3438 158.156C24.1406 157.953 23.9023 157.793 23.6289 157.676C23.3555 157.559 23.0625 157.5 22.75 157.5C22.4375 157.5 22.1445 157.559 21.8711 157.676C21.5977 157.793 21.3594 157.953 21.1562 158.156C20.9531 158.359 20.793 158.598 20.6758 158.871C20.5586 159.145 20.5 159.438 20.5 159.75Z" fill="#00D8FF"/>
<path d="M13 199H19L22 202V199H24V191H22M8 186H19V194H13L10 197V194H8V186Z" stroke="#00D8FF" stroke-width="1.5" stroke-linecap="round" stroke-linejoin="round"/>
<g clip-path="url(#clip0_204_2905)">
<path d="M24.0001 114H14.9467L13.4067 111.88C13.2826 111.71 13.1201 111.572 12.9324 111.477C12.7447 111.382 12.5371 111.333 12.3267 111.334H8.00008C7.64646 111.334 7.30732 111.474 7.05727 111.724C6.80722 111.974 6.66675 112.313 6.66675 112.667V127.333C6.66675 127.687 6.80722 128.026 7.05727 128.276C7.30732 128.526 7.64646 128.667 8.00008 128.667H24.0001C24.3537 128.667 24.6928 128.526 24.9429 128.276C25.1929 128.026 25.3334 127.687 25.3334 127.333V115.334C25.3334 114.98 25.1929 114.641 24.9429 114.391C24.6928 114.141 24.3537 114 24.0001 114ZM24.0001 127.333H8.00008V116.667H12.8734C13.227 116.667 13.5662 116.526 13.8162 116.276C14.0663 116.026 14.2067 115.687 14.2067 115.334H8.00008V112.667H12.3267L14.0667 115.06C14.1288 115.145 14.2101 115.214 14.3039 115.262C14.3978 115.309 14.5016 115.334 14.6067 115.334H24.0001V127.333Z" fill="#00D8FF"/>
<path d="M18.6066 122.987C18.2446 122.993 17.8996 123.141 17.6466 123.4L13.8332 121.627V121.334L17.6066 119.567C17.7965 119.765 18.0408 119.902 18.3086 119.961C18.5765 120.02 18.8559 119.998 19.1114 119.899C19.3669 119.799 19.5871 119.626 19.7441 119.401C19.9012 119.176 19.988 118.909 19.9936 118.635C19.9992 118.361 19.9233 118.091 19.7756 117.86C19.6279 117.629 19.4149 117.447 19.1637 117.337C18.9124 117.227 18.6342 117.194 18.3641 117.242C18.0941 117.29 17.8444 117.417 17.6466 117.607C17.3799 117.867 17.2266 118.221 17.2199 118.594V118.747L13.4599 120.52C13.2709 120.322 13.0275 120.184 12.7603 120.124C12.493 120.064 12.214 120.084 11.9584 120.183C11.7028 120.281 11.482 120.453 11.3239 120.677C11.1658 120.9 11.0775 121.166 11.0701 121.439C11.0627 121.713 11.1365 121.983 11.2822 122.215C11.428 122.447 11.6391 122.63 11.889 122.742C12.1389 122.854 12.4164 122.89 12.6865 122.844C12.9566 122.799 13.2071 122.675 13.4066 122.487L13.4599 122.434L17.2399 124.207V124.407C17.2412 124.682 17.3242 124.951 17.4784 125.18C17.6326 125.408 17.8511 125.586 18.1062 125.69C18.3613 125.794 18.6416 125.82 18.9116 125.765C19.1816 125.71 19.4292 125.576 19.6231 125.381C19.8171 125.185 19.9486 124.936 20.0011 124.665C20.0535 124.395 20.0246 124.115 19.9179 123.861C19.8112 123.607 19.6316 123.39 19.4018 123.238C19.1719 123.086 18.9021 123.006 18.6266 123.007L18.6066 122.987Z" fill="#00D8FF"/>
</g>
<path d="M15 20L12 21V12.5L7.52 7.572C7.18545 7.20393 7.00005 6.7244 7 6.227V4H23V6.172C22.9999 6.70239 22.7891 7.21101 22.414 7.586L18 12V14M22 22V16M22 16L25 19M22 16L19 19" stroke="#00D8FF" stroke-width="2" stroke-linecap="round" stroke-linejoin="round"/>
<path d="M13.8001 83.1999C13.8001 81.2799 14.7601 79.5999 16.2001 78.3999H15.0001C10.3201 78.3999 6.6001 79.4799 6.6001 80.7999C6.6001 81.9999 9.7201 82.9599 13.8001 83.1999ZM15.0001 93.9999C10.3201 93.9999 6.6001 92.9199 6.6001 91.5999V95.1999C6.6001 96.5199 10.3201 97.5999 15.0001 97.5999C19.6801 97.5999 23.4001 96.5199 23.4001 95.1999V91.5999C23.4001 92.9199 19.6801 93.9999 15.0001 93.9999ZM18.3601 88.9599C17.2801 89.0799 16.0801 89.1999 15.0001 89.1999C10.3201 89.1999 6.6001 88.1199 6.6001 86.7999V90.3999C6.6001 91.7199 10.3201 92.7999 15.0001 92.7999C19.6801 92.7999 23.4001 91.7199 23.4001 90.3999V87.9999C22.3201 88.8399 21.1201 89.1999 19.8001 89.1999C19.3201 89.1999 18.8401 89.0799 18.3601 88.9599ZM15.0001 87.9999H16.2001C15.0001 87.1599 14.1601 85.8399 13.9201 84.3999C9.8401 84.2799 6.6001 83.1999 6.6001 81.9999V85.5999C6.6001 86.9199 10.3201 87.9999 15.0001 87.9999ZM19.8001 87.9999C22.4401 87.9999 24.6001 85.8399 24.6001 83.1999C24.6001 80.5599 22.4401 78.3999 19.8001 78.3999C17.1601 78.3999 15.0001 80.5599 15.0001 83.1999C15.0001 85.8399 17.1601 87.9999 19.8001 87.9999ZM19.8001 79.5999L23.4001 83.1999H21.0001V86.7999H18.6001V83.1999H16.2001L19.8001 79.5999Z" fill="#00D8FF"/>
<path d="M16.0938 229.773C16.0938 229.877 16.1734 229.961 16.2695 229.961H20.6055C20.7016 229.961 20.7812 229.877 20.7812 229.773V228.648C20.7812 228.545 20.7016 228.461 20.6055 228.461H16.2695C16.1734 228.461 16.0938 228.545 16.0938 228.648V229.773ZM11.5258 229.916L16.0258 226.143C16.1148 226.068 16.1148 225.93 16.0258 225.855L11.5258 222.084C11.4986 222.06 11.4654 222.046 11.4301 222.041C11.3947 222.036 11.3587 222.042 11.3264 222.057C11.2941 222.072 11.2668 222.096 11.2477 222.126C11.2286 222.156 11.2186 222.191 11.2188 222.227V223.696C11.2188 223.752 11.2422 223.804 11.2867 223.839L13.8602 226L11.2867 228.161C11.2658 228.178 11.2489 228.2 11.2371 228.225C11.2254 228.25 11.2191 228.277 11.2188 228.304V229.773C11.2188 229.933 11.4039 230.02 11.5258 229.916ZM24.625 216.625H7.375C6.96016 216.625 6.625 216.96 6.625 217.375V234.625C6.625 235.04 6.96016 235.375 7.375 235.375H24.625C25.0398 235.375 25.375 235.04 25.375 234.625V217.375C25.375 216.96 25.0398 216.625 24.625 216.625ZM23.6875 233.688H8.3125V218.312H23.6875V233.688Z" fill="#00D8FF"/>
<path d="M20.97 342.172L19.556 343.586L16.021 340.051L15.948 340.125L15.241 343.661L13.826 345.075L9.58397 340.832L4.63397 345.782L3.21997 344.368L8.16997 339.418L3.92697 335.175L5.33997 333.761L8.87597 333.054L8.94897 332.98L5.41297 329.444L6.82797 328.03L20.97 342.172ZM10.365 334.394L9.86297 334.896L7.04097 335.461L13.541 341.961L14.105 339.139L14.607 338.637L10.365 334.394ZM18.776 334.468L17.436 335.808L18.85 337.223L20.19 335.883L20.897 336.59L22.312 335.175L13.826 326.69L12.412 328.104L13.119 328.811L11.779 330.151L13.193 331.566L14.533 330.226L18.776 334.468Z" fill="#00D8FF"/>
<path d="M19.5 57.5C20.3284 57.5 21 56.8284 21 56C21 55.1716 20.3284 54.5 19.5 54.5C18.6716 54.5 18 55.1716 18 56C18 56.8284 18.6716 57.5 19.5 57.5Z" fill="#00D8FF"/>
<path d="M25.3328 55.6093C24.8693 54.4287 24.0697 53.41 23.0329 52.6796C21.9961 51.9491 20.7677 51.539 19.5 51.5C18.2323 51.539 17.0039 51.9491 15.9671 52.6796C14.9303 53.41 14.1307 54.4287 13.6672 55.6093L13.5 56L13.6672 56.3915C14.1308 57.5719 14.9305 58.5904 15.9673 59.3207C17.0041 60.051 18.2324 60.4611 19.5 60.5C20.7676 60.4611 21.9959 60.051 23.0327 59.3207C24.0695 58.5904 24.8692 57.5719 25.3328 56.3915L25.5 56L25.3328 55.6093ZM19.5 59C18.9067 59 18.3266 58.8241 17.8333 58.4944C17.3399 58.1648 16.9554 57.6962 16.7284 57.148C16.5013 56.5999 16.4419 55.9967 16.5576 55.4147C16.6734 54.8328 16.9591 54.2982 17.3787 53.8787C17.7982 53.4591 18.3328 53.1734 18.9147 53.0576C19.4967 52.9419 20.0999 53.0013 20.648 53.2284C21.1962 53.4554 21.6648 53.8399 21.9944 54.3333C22.3241 54.8266 22.5 55.4067 22.5 56C22.499 56.7953 22.1826 57.5578 21.6202 58.1202C21.0578 58.6826 20.2953 58.999 19.5 59Z" fill="#00D8FF"/>
<path d="M9 44.75C9.41421 44.75 9.75 44.4142 9.75 44C9.75 43.5858 9.41421 43.25 9 43.25C8.58579 43.25 8.25 43.5858 8.25 44C8.25 44.4142 8.58579 44.75 9 44.75Z" fill="#00D8FF"/>
<path d="M9 50.75C9.41421 50.75 9.75 50.4142 9.75 50C9.75 49.5858 9.41421 49.25 9 49.25C8.58579 49.25 8.25 49.5858 8.25 50C8.25 50.4142 8.58579 50.75 9 50.75Z" fill="#00D8FF"/>
<path d="M9 56.75C9.41421 56.75 9.75 56.4142 9.75 56C9.75 55.5858 9.41421 55.25 9 55.25C8.58579 55.25 8.25 55.5858 8.25 56C8.25 56.4142 8.58579 56.75 9 56.75Z" fill="#00D8FF"/>
<path d="M6.75 53.75H12V52.25H6.75V47.75H18.75V50H20.25V41.75C20.25 41.3522 20.092 40.9706 19.8107 40.6893C19.5294 40.408 19.1478 40.25 18.75 40.25H6.75C6.35218 40.25 5.97064 40.408 5.68934 40.6893C5.40804 40.9706 5.25 41.3522 5.25 41.75V58.25C5.25 58.6478 5.40804 59.0294 5.68934 59.3107C5.97064 59.592 6.35218 59.75 6.75 59.75H12V58.25H6.75V53.75ZM6.75 41.75H18.75V46.25H6.75V41.75Z" fill="#00D8FF"/>
<g clip-path="url(#clip1_204_2905)">
<path fill-rule="evenodd" clip-rule="evenodd" d="M10 255C9.46957 255 8.96086 255.211 8.58579 255.586C8.21071 255.961 8 256.47 8 257V259H10V257H21V268H19V270H21C21.5304 270 22.0391 269.789 22.4142 269.414C22.7893 269.039 23 268.53 23 268V257C23 256.47 22.7893 255.961 22.4142 255.586C22.0391 255.211 21.5304 255 21 255H10ZM5 260C4.46957 260 3.96086 260.211 3.58579 260.586C3.21071 260.961 3 261.47 3 262V273C3 273.53 3.21071 274.039 3.58579 274.414C3.96086 274.789 4.46957 275 5 275H16C16.5304 275 17.0391 274.789 17.4142 274.414C17.7893 274.039 18 273.53 18 273V262C18 261.47 17.7893 260.961 17.4142 260.586C17.0391 260.211 16.5304 260 16 260H5ZM5 262H16V273H5V262Z" fill="#00D8FF"/>
</g>
<path d="M12.0001 309.381C16.6288 309.381 20.381 305.629 20.381 301C20.381 296.371 16.6288 292.619 12.0001 292.619C7.37142 292.619 3.61914 296.371 3.61914 301C3.61914 305.629 7.37142 309.381 12.0001 309.381Z" stroke="#00D8FF" stroke-width="1.5" stroke-linecap="round" stroke-linejoin="round"/>
<path d="M8.85718 297.857L15.1429 304.143M15.1429 297.857L8.85718 304.143" stroke="#00D8FF" stroke-width="1.5" stroke-linecap="round" stroke-linejoin="round"/>
<defs>
<clipPath id="clip0_204_2905">
<rect width="24" height="24" fill="white" transform="translate(4 108)"/>
</clipPath>
<clipPath id="clip1_204_2905">
<rect width="24" height="24" fill="white" transform="translate(1 253)"/>
</clipPath>
</defs>
</svg>
