<svg width="312" height="93" viewBox="0 0 312 93" fill="none" xmlns="http://www.w3.org/2000/svg">
<g filter="url(#filter0_if_647_3125)">
<path fill-rule="evenodd" clip-rule="evenodd" d="M301.714 8H300.831V11.6021L303.763 11.6021V10.7017H301.714V8ZM303.763 12.5026H299.949V11.6021L299.949 8H8.7627V33.2158H11.4098V35.9175H8.7627V37.7186H10.5276V35.9177H11.41V37.7188H11.4098V40.4202H8.7627V67.3353L26.3746 85H144.375V77.7529H168.151V85H277.733L277.197 84.453L303.763 57.3397V12.5026ZM303.763 62.4341L281.652 85H286.151L303.763 67.3353V62.4341ZM226.711 82.7471H227.593V84.5482H226.711V82.7471ZM231.123 80.0453H228.476V84.5481H231.123V80.0453ZM223.182 80.0453H225.829V84.5481H223.182V80.0453Z" fill="#00D8FF"/>
</g>
<g filter="url(#filter1_di_647_3125)">
<path fill-rule="evenodd" clip-rule="evenodd" d="M298.968 6H298.089V9.60205L301.606 9.60205V10.5026H297.209L297.209 9.60226V6H7V31.2158H9.63826V33.9175H7V35.7186H8.75879V33.9177H9.63892V35.7188H9.63826V38.4202H7V65.3353L24.6119 83H142.612V75.7529H166.388V83H275.068L274.533 82.453L301.513 54.8252L302 55.3242V6H301.606V8.70169H298.968V6ZM302 59.4205L278.974 83H284.388L302 65.3353V59.4205ZM224.217 80.7471H225.097V82.5482H224.217V80.7471ZM228.614 78.0453H225.976V82.5481H228.614V78.0453ZM220.699 78.0453H223.337V82.5481H220.699V78.0453Z" fill="url(#paint0_linear_647_3125)"/>
</g>
<path d="M81.6994 37H84.9994V54.97H92.5294V58H81.6994V37ZM108.562 52.45C108.562 54.47 107.942 55.96 106.702 56.92C105.482 57.86 104.012 58.33 102.292 58.33C101.212 58.33 100.192 58.14 99.2323 57.76C98.2723 57.36 97.4823 56.72 96.8623 55.84C96.2623 54.96 95.9623 53.83 95.9623 52.45V42.79C95.9623 40.73 96.5223 39.17 97.6423 38.11C98.7823 37.05 100.342 36.52 102.322 36.52C104.302 36.52 105.832 37.08 106.912 38.2C108.012 39.32 108.562 40.86 108.562 42.82V52.45ZM105.262 43.9C105.262 43.06 105.192 42.37 105.052 41.83C104.912 41.29 104.622 40.87 104.182 40.57C103.742 40.25 103.102 40.09 102.262 40.09C101.422 40.09 100.782 40.24 100.342 40.54C99.9023 40.84 99.6123 41.26 99.4723 41.8C99.3323 42.32 99.2623 43.01 99.2623 43.87V51.88C99.2623 52.84 99.5023 53.6 99.9823 54.16C100.482 54.7 101.242 54.97 102.262 54.97C103.202 54.97 103.932 54.68 104.452 54.1C104.992 53.52 105.262 52.76 105.262 51.82V43.9ZM121.362 52.51H116.532L115.362 58H111.642L116.562 37H121.212L126.522 58H122.592L121.362 52.51ZM117.312 49H120.582L118.872 42.52L117.312 49ZM130.672 36.97H136.312C138.572 36.97 140.292 37.59 141.472 38.83C142.672 40.07 143.272 41.72 143.272 43.78V52C143.272 56 141.152 58 136.912 58H130.672V36.97ZM139.972 43.48C139.972 42.38 139.692 41.58 139.132 41.08C138.592 40.56 137.752 40.3 136.612 40.3H133.972V54.97H136.432C137.512 54.97 138.372 54.81 139.012 54.49C139.652 54.15 139.972 53.42 139.972 52.3V43.48ZM172.087 46.9L168.577 58H166.057L162.607 46.93V58H159.307V37H162.607L167.317 50.89L172.087 37H175.387V58H172.087V46.9ZM193.787 52.45C193.787 54.47 193.167 55.96 191.927 56.92C190.707 57.86 189.237 58.33 187.517 58.33C186.437 58.33 185.417 58.14 184.457 57.76C183.497 57.36 182.707 56.72 182.087 55.84C181.487 54.96 181.187 53.83 181.187 52.45V42.79C181.187 40.73 181.747 39.17 182.867 38.11C184.007 37.05 185.567 36.52 187.547 36.52C189.527 36.52 191.057 37.08 192.137 38.2C193.237 39.32 193.787 40.86 193.787 42.82V52.45ZM190.487 43.9C190.487 43.06 190.417 42.37 190.277 41.83C190.137 41.29 189.847 40.87 189.407 40.57C188.967 40.25 188.327 40.09 187.487 40.09C186.647 40.09 186.007 40.24 185.567 40.54C185.127 40.84 184.837 41.26 184.697 41.8C184.557 42.32 184.487 43.01 184.487 43.87V51.88C184.487 52.84 184.727 53.6 185.207 54.16C185.707 54.7 186.467 54.97 187.487 54.97C188.427 54.97 189.157 54.68 189.677 54.1C190.217 53.52 190.487 52.76 190.487 51.82V43.9ZM207.282 52.15H202.902V58H199.602V37H206.712C208.032 37 209.132 37.33 210.012 37.99C210.892 38.63 211.542 39.49 211.962 40.57C212.402 41.65 212.622 42.84 212.622 44.14C212.622 45.12 212.582 45.97 212.502 46.69C212.422 47.41 212.212 48.16 211.872 48.94C211.552 49.72 211.032 50.42 210.312 51.04L212.652 58H209.292L207.282 52.15ZM205.932 49C206.912 49 207.632 48.75 208.092 48.25C208.572 47.73 208.862 47.14 208.962 46.48C209.082 45.82 209.142 45.04 209.142 44.14C209.142 43.08 208.992 42.28 208.692 41.74C208.392 41.18 207.972 40.81 207.432 40.63C206.892 40.43 206.192 40.33 205.332 40.33H202.902V49H205.932ZM218.035 37H228.055V40.3H221.335V45.61H225.445L224.515 48.76H221.335V55H227.995V58H218.035V37Z" fill="white"/>
<defs>
<filter id="filter0_if_647_3125" x="0.762695" y="0" width="311" height="93" filterUnits="userSpaceOnUse" color-interpolation-filters="sRGB">
<feFlood flood-opacity="0" result="BackgroundImageFix"/>
<feBlend mode="normal" in="SourceGraphic" in2="BackgroundImageFix" result="shape"/>
<feColorMatrix in="SourceAlpha" type="matrix" values="0 0 0 0 0 0 0 0 0 0 0 0 0 0 0 0 0 0 127 0" result="hardAlpha"/>
<feOffset dy="2"/>
<feGaussianBlur stdDeviation="5.5"/>
<feComposite in2="hardAlpha" operator="arithmetic" k2="-1" k3="1"/>
<feColorMatrix type="matrix" values="0 0 0 0 0 0 0 0 0 0 0 0 0 0 0 0 0 0 0.25 0"/>
<feBlend mode="normal" in2="shape" result="effect1_innerShadow_647_3125"/>
<feGaussianBlur stdDeviation="4" result="effect2_foregroundBlur_647_3125"/>
</filter>
<filter id="filter1_di_647_3125" x="3" y="6" width="303" height="85" filterUnits="userSpaceOnUse" color-interpolation-filters="sRGB">
<feFlood flood-opacity="0" result="BackgroundImageFix"/>
<feColorMatrix in="SourceAlpha" type="matrix" values="0 0 0 0 0 0 0 0 0 0 0 0 0 0 0 0 0 0 127 0" result="hardAlpha"/>
<feOffset dy="4"/>
<feGaussianBlur stdDeviation="2"/>
<feComposite in2="hardAlpha" operator="out"/>
<feColorMatrix type="matrix" values="0 0 0 0 0 0 0 0 0 0 0 0 0 0 0 0 0 0 0.25 0"/>
<feBlend mode="normal" in2="BackgroundImageFix" result="effect1_dropShadow_647_3125"/>
<feBlend mode="normal" in="SourceGraphic" in2="effect1_dropShadow_647_3125" result="shape"/>
<feColorMatrix in="SourceAlpha" type="matrix" values="0 0 0 0 0 0 0 0 0 0 0 0 0 0 0 0 0 0 127 0" result="hardAlpha"/>
<feOffset dy="2"/>
<feGaussianBlur stdDeviation="2"/>
<feComposite in2="hardAlpha" operator="arithmetic" k2="-1" k3="1"/>
<feColorMatrix type="matrix" values="0 0 0 0 1 0 0 0 0 1 0 0 0 0 1 0 0 0 0.25 0"/>
<feBlend mode="normal" in2="shape" result="effect2_innerShadow_647_3125"/>
</filter>
<linearGradient id="paint0_linear_647_3125" x1="7" y1="44.5" x2="302" y2="44.5" gradientUnits="userSpaceOnUse">
<stop stop-color="#3F80EA"/>
<stop offset="1" stop-color="#213182"/>
</linearGradient>
</defs>
</svg>
