<svg width="50" height="50" viewBox="0 0 50 50" fill="none" xmlns="http://www.w3.org/2000/svg">
<path fill-rule="evenodd" clip-rule="evenodd" d="M7.5 13.5C7.5 12.837 7.76339 12.2011 8.23223 11.7322C8.70107 11.2634 9.33696 11 10 11H40C40.663 11 41.2989 11.2634 41.7678 11.7322C42.2366 12.2011 42.5 12.837 42.5 13.5C42.5 14.163 42.2366 14.7989 41.7678 15.2678C41.2989 15.7366 40.663 16 40 16H10C9.33696 16 8.70107 15.7366 8.23223 15.2678C7.76339 14.7989 7.5 14.163 7.5 13.5ZM7.5 26C7.5 25.337 7.76339 24.7011 8.23223 24.2322C8.70107 23.7634 9.33696 23.5 10 23.5H40C40.663 23.5 41.2989 23.7634 41.7678 24.2322C42.2366 24.7011 42.5 25.337 42.5 26C42.5 26.663 42.2366 27.2989 41.7678 27.7678C41.2989 28.2366 40.663 28.5 40 28.5H10C9.33696 28.5 8.70107 28.2366 8.23223 27.7678C7.76339 27.2989 7.5 26.663 7.5 26ZM7.5 38.5C7.5 37.837 7.76339 37.2011 8.23223 36.7322C8.70107 36.2634 9.33696 36 10 36H40C40.663 36 41.2989 36.2634 41.7678 36.7322C42.2366 37.2011 42.5 37.837 42.5 38.5C42.5 39.163 42.2366 39.7989 41.7678 40.2678C41.2989 40.7366 40.663 41 40 41H10C9.33696 41 8.70107 40.7366 8.23223 40.2678C7.76339 39.7989 7.5 39.163 7.5 38.5Z" fill="url(#paint0_linear_204_3595)"/>
<defs>
<linearGradient id="paint0_linear_204_3595" x1="30" y1="73.5" x2="28.5" y2="2.5" gradientUnits="userSpaceOnUse">
<stop stop-color="#00D8FF" stop-opacity="0.1"/>
<stop offset="0.7" stop-color="#00D8FF"/>
</linearGradient>
</defs>
</svg>
