<svg width="60" height="60" viewBox="0 0 60 60" fill="none" xmlns="http://www.w3.org/2000/svg">
<path d="M17.5 17.4998V12.4998C17.5 11.052 17.9191 9.63518 18.7067 8.42031C19.4942 7.20544 20.6165 6.24449 21.9382 5.65344C23.2599 5.06239 24.7244 4.86651 26.1549 5.08946C27.5854 5.3124 28.9209 5.94463 30 6.90983C31.0791 5.94463 32.4146 5.3124 33.8451 5.08946C35.2756 4.86651 36.7401 5.06239 38.0618 5.65344C39.3835 6.24449 40.5058 7.20544 41.2933 8.42031C42.0809 9.63518 42.5 11.052 42.5 12.4998V17.4998H46.25C47.2446 17.4998 48.1984 17.8949 48.9016 18.5982C49.6049 19.3014 50 20.2553 50 21.2498V32.0448L47.5775 29.6598C47.1708 29.2598 46.7283 28.9123 46.25 28.6173V21.2498H36.275V27.5048H35.0025C34.135 27.5048 33.3025 27.6548 32.525 27.9248V21.2498H13.75V44.9998C13.75 45.8206 13.9117 46.6333 14.2258 47.3916C14.5398 48.1499 15.0002 48.8389 15.5806 49.4193C16.1609 49.9996 16.8499 50.46 17.6082 50.7741C18.3665 51.0882 19.1792 51.2498 20 51.2498H33.25L36.935 54.9998H20C17.3478 54.9998 14.8043 53.9463 12.9289 52.0709C11.0536 50.1955 10 47.652 10 44.9998V21.2498C10 20.2553 10.3951 19.3014 11.0983 18.5982C11.8016 17.8949 12.7554 17.4998 13.75 17.4998H17.5ZM28.75 17.4998V12.4998C28.75 11.5053 28.3549 10.5514 27.6517 9.84818C26.9484 9.14492 25.9946 8.74983 25 8.74983C24.0054 8.74983 23.0516 9.14492 22.3483 9.84818C21.6451 10.5514 21.25 11.5053 21.25 12.4998V17.4998H28.75ZM32.5 17.4998H38.75V12.4998C38.7501 11.7279 38.5119 10.9748 38.0681 10.3432C37.6242 9.7117 36.9963 9.23251 36.27 8.97108C35.5437 8.70966 34.7544 8.67874 34.0099 8.88254C33.2654 9.08635 32.6019 9.51495 32.11 10.1098C32.3625 10.8598 32.5 11.6648 32.5 12.4998V17.4998ZM31.43 45.8298L41.4325 56.0098C43.385 57.9998 46.5925 58.0098 48.5625 56.0398L56.045 48.5498C56.5109 48.0852 56.8801 47.5327 57.131 46.9244C57.3819 46.3161 57.5097 45.6641 57.5069 45.0061C57.5041 44.3481 57.3708 43.6971 57.1147 43.091C56.8586 42.4848 56.4849 41.9355 56.015 41.4748L45.825 31.4423C44.8863 30.5153 43.6193 29.9968 42.3 29.9998L35.005 30.0048C33.6798 30.0035 32.4082 30.5283 31.4698 31.464C30.5313 32.3997 30.0026 33.6696 30 34.9948V42.3373C30 43.6423 30.5125 44.8973 31.43 45.8298ZM39.99 37.4998C39.9902 37.8281 39.9257 38.1533 39.8002 38.4566C39.6747 38.76 39.4907 39.0357 39.2587 39.268C39.0266 39.5002 38.7511 39.6845 38.4479 39.8103C38.1446 39.9361 37.8196 40.0009 37.4912 40.0011C36.8282 40.0014 36.1922 39.7383 35.7231 39.2697C35.254 38.8011 34.9903 38.1654 34.99 37.5023C34.9897 36.8393 35.2527 36.2033 35.7213 35.7342C36.19 35.2651 36.8257 35.0014 37.4887 35.0011C38.1518 35.0008 38.7878 35.2638 39.2569 35.7324C39.726 36.201 39.9897 36.8368 39.99 37.4998Z" fill="url(#paint0_linear_204_3507)"/>
<defs>
<linearGradient id="paint0_linear_204_3507" x1="33.7535" y1="5" x2="33.7535" y2="57.5099" gradientUnits="userSpaceOnUse">
<stop stop-color="#00D8FF"/>
<stop offset="1" stop-color="#3F80EA"/>
</linearGradient>
</defs>
</svg>
