<svg width="35" height="35" viewBox="0 0 35 35" fill="none" xmlns="http://www.w3.org/2000/svg">
<rect width="35" height="35" rx="2" fill="#000431" fill-opacity="0.9"/>
<path d="M29.1666 16.0415C28.8099 13.4752 27.6194 11.0973 25.7783 9.27412C23.9373 7.45097 21.5479 6.2837 18.9782 5.95212C16.4085 5.62055 13.801 6.14306 11.5575 7.43917C9.31397 8.73529 7.55882 10.7331 6.56242 13.1249M5.83325 7.29152V13.1249H11.6666M5.83325 18.9582C6.1899 21.5245 7.38044 23.9024 9.22149 25.7256C11.0625 27.5487 13.4519 28.716 16.0216 29.0476C18.5914 29.3792 21.1988 28.8567 23.4423 27.5605C25.6859 26.2644 27.441 24.2666 28.4374 21.8749M29.1666 27.7082V21.8749H23.3333" stroke="white" stroke-width="3.33" stroke-linecap="round" stroke-linejoin="round"/>
</svg>
