<svg width="30" height="30" viewBox="0 0 30 30" fill="none" xmlns="http://www.w3.org/2000/svg">
<path d="M3.75 25.0001L5.375 20.1251C2.47 15.8289 3.5925 10.2851 8 7.15764C12.4075 4.03139 18.7375 4.28764 22.8062 7.75764C26.875 11.2289 27.425 16.8401 24.0925 20.8839C20.76 24.9276 14.5737 26.1526 9.625 23.7501L3.75 25.0001Z" stroke="white" stroke-width="2.33" stroke-linecap="round" stroke-linejoin="round"/>
<path d="M11.7756 20V18.858L14.8054 15.8878C15.0952 15.5952 15.3366 15.3352 15.5298 15.108C15.723 14.8807 15.8679 14.6605 15.9645 14.4474C16.0611 14.2344 16.1094 14.0071 16.1094 13.7656C16.1094 13.4901 16.0469 13.2543 15.9219 13.0582C15.7969 12.8594 15.625 12.706 15.4062 12.598C15.1875 12.4901 14.9389 12.4361 14.6605 12.4361C14.3736 12.4361 14.1222 12.4957 13.9062 12.6151C13.6903 12.7315 13.5227 12.8977 13.4034 13.1136C13.2869 13.3295 13.2287 13.5866 13.2287 13.8849H11.7244C11.7244 13.331 11.8509 12.8494 12.1037 12.4403C12.3565 12.0312 12.7045 11.7145 13.1477 11.4901C13.5938 11.2656 14.1051 11.1534 14.6818 11.1534C15.267 11.1534 15.7813 11.2628 16.2244 11.4815C16.6676 11.7003 17.0114 12 17.2557 12.3807C17.5028 12.7614 17.6264 13.196 17.6264 13.6847C17.6264 14.0114 17.5639 14.3324 17.4389 14.6477C17.3139 14.9631 17.0938 15.3125 16.7784 15.696C16.4659 16.0795 16.027 16.544 15.4616 17.0895L13.9574 18.6193V18.679H17.7585V20H11.7756Z" fill="white"/>
</svg>
