<svg width="60" height="60" viewBox="0 0 60 60" fill="none" xmlns="http://www.w3.org/2000/svg">
<path d="M43.535 26.035C45 24.57 45 22.215 45 17.5C45 12.785 45 10.43 43.535 8.965M43.535 26.035C42.07 27.5 39.715 27.5 35 27.5H25C20.285 27.5 17.93 27.5 16.465 26.035M43.535 8.965C42.07 7.5 39.715 7.5 35 7.5H25C20.285 7.5 17.93 7.5 16.465 8.965M16.465 8.965C15 10.43 15 12.785 15 17.5C15 22.215 15 24.57 16.465 26.035M32.5 17.5C32.5 18.163 32.2366 18.7989 31.7678 19.2678C31.2989 19.7366 30.663 20 30 20C29.337 20 28.7011 19.7366 28.2322 19.2678C27.7634 18.7989 27.5 18.163 27.5 17.5C27.5 16.837 27.7634 16.2011 28.2322 15.7322C28.7011 15.2634 29.337 15 30 15C30.663 15 31.2989 15.2634 31.7678 15.7322C32.2366 16.2011 32.5 16.837 32.5 17.5Z" stroke="url(#paint0_linear_204_3518)" stroke-width="2.25"/>
<path d="M45 15C43.0109 15 41.1032 14.2098 39.6967 12.8033C38.2902 11.3968 37.5 9.48912 37.5 7.5M45 20C43.0109 20 41.1032 20.7902 39.6967 22.1967C38.2902 23.6032 37.5 25.5109 37.5 27.5M15 15C16.9891 15 18.8968 14.2098 20.3033 12.8033C21.7098 11.3968 22.5 9.48912 22.5 7.5M15 20C16.9891 20 18.8968 20.7902 20.3033 22.1967C21.7098 23.6032 22.5 25.5109 22.5 27.5M12.5 50.97H18.15C20.675 50.97 23.2325 51.235 25.69 51.74C30.0775 52.6414 34.5919 52.7413 39.015 52.035C41.185 51.685 43.315 51.1475 45.245 50.2175C46.985 49.375 49.1175 48.1925 50.55 46.865C51.98 45.54 53.47 43.3725 54.525 41.6775C55.435 40.2225 54.995 38.44 53.56 37.3575C52.7536 36.771 51.7821 36.455 50.785 36.455C49.7879 36.455 48.8164 36.771 48.01 37.3575L43.4925 40.77C41.7425 42.095 39.83 43.3125 37.5525 43.675C37.2775 43.7175 36.99 43.7575 36.69 43.7925M36.69 43.7925C36.5984 43.8031 36.5067 43.8131 36.415 43.8225M36.69 43.7925C37.0901 43.6843 37.457 43.4781 37.7575 43.1925C38.1342 42.8666 38.4418 42.4685 38.6622 42.0218C38.8826 41.5751 39.0113 41.0887 39.0406 40.5915C39.07 40.0942 38.9994 39.5961 38.8332 39.1265C38.6669 38.657 38.4083 38.2255 38.0725 37.8575C37.7467 37.4958 37.3673 37.1864 36.9475 36.94C29.955 32.7675 19.0725 35.945 12.5 40.6075M36.69 43.7925C36.5996 43.8122 36.5075 43.8222 36.415 43.8225M36.415 43.8225C34.9073 43.974 33.3884 43.9774 31.88 43.8325" stroke="url(#paint1_linear_204_3518)" stroke-width="2.25" stroke-linecap="round"/>
<path d="M12.5 38.75C12.5 36.6789 10.8211 35 8.75 35C6.67893 35 5 36.6789 5 38.75V51.25C5 53.3211 6.67893 55 8.75 55C10.8211 55 12.5 53.3211 12.5 51.25V38.75Z" stroke="url(#paint2_linear_204_3518)" stroke-width="2.25"/>
<defs>
<linearGradient id="paint0_linear_204_3518" x1="30" y1="7.5" x2="30" y2="27.5" gradientUnits="userSpaceOnUse">
<stop stop-color="#00D8FF"/>
<stop offset="1" stop-color="#3F80EA"/>
</linearGradient>
<linearGradient id="paint1_linear_204_3518" x1="33.7498" y1="7.5" x2="33.7498" y2="52.4995" gradientUnits="userSpaceOnUse">
<stop stop-color="#00D8FF"/>
<stop offset="1" stop-color="#3F80EA"/>
</linearGradient>
<linearGradient id="paint2_linear_204_3518" x1="8.75" y1="35" x2="8.75" y2="55" gradientUnits="userSpaceOnUse">
<stop stop-color="#00D8FF"/>
<stop offset="1" stop-color="#3F80EA"/>
</linearGradient>
</defs>
</svg>
