<svg width="17" height="12" viewBox="0 0 17 12" fill="none" xmlns="http://www.w3.org/2000/svg">
<g id="Frame">
<path id="Vector" d="M15 0H2C0.89543 0 0 0.89543 0 2V10C0 11.1046 0.89543 12 2 12H15C16.1046 12 17 11.1046 17 10V2C17 0.89543 16.1046 0 15 0Z" fill="#016FD0"/>
<path id="Vector_2" d="M9.34692 10.101V5.80103L16.9999 5.80803V6.99603L16.1149 7.94103L16.9999 8.89503V10.108H15.5879L14.8369 9.28003L14.0919 10.111L9.34692 10.101Z" fill="white"/>
<path id="Vector_3" d="M9.85791 9.6299V6.2749H12.7029V7.0469H10.7789V7.5719H12.6569V8.3319H10.7789V8.8469H12.7029V9.6299H9.85791Z" fill="#016FD0"/>
<path id="Vector_4" d="M12.689 9.6299L14.263 7.9499L12.689 6.2749H13.907L14.869 7.3379L15.834 6.2749H17V6.3009L15.459 7.9499L17 9.5819V9.6299H15.822L14.843 8.5559L13.874 9.6299H12.689Z" fill="#016FD0"/>
<path id="Vector_5" d="M9.70408 1.98511H11.5491L12.1971 3.45611V1.98511H14.4741L14.8671 3.08711L15.2611 1.98511H17.0001V6.28511H7.80908L9.70408 1.98511Z" fill="white"/>
<path id="Vector_6" d="M10.0501 2.44995L8.56006 5.79995H9.60006L9.88006 5.12995H11.4001L11.6801 5.79995H12.7301L11.2401 2.44995H10.0601H10.0501ZM10.1801 4.37995L10.6301 3.30995L11.0701 4.37995H10.1801Z" fill="#016FD0"/>
<path id="Vector_7" d="M12.7009 5.80393V2.45093L14.1369 2.45693L14.8749 4.51693L15.6189 2.45093H16.9999V5.80393L16.1109 5.81193V3.50893L15.2719 5.80393H14.4609L13.6039 3.50093V5.80393H12.7009Z" fill="#016FD0"/>
</g>
</svg>
