<svg width="86" height="12" viewBox="0 0 86 12" fill="none" xmlns="http://www.w3.org/2000/svg">
<g clip-path="url(#clip0_112_448)">
<path d="M1.59993 0.179932H15.3999C16.1899 0.179932 16.8199 0.809932 16.8199 1.58993V10.3299C16.8199 11.1099 16.1899 11.7499 15.4099 11.7499H1.58993C0.809932 11.7499 0.179932 11.1099 0.179932 10.3299V1.59993C0.179932 0.809932 0.799932 0.179932 1.58993 0.179932H1.59993Z" fill="white" stroke="black" stroke-opacity="0.2" stroke-width="0.5"/>
<path d="M1.97995 4.38999C1.57728 4.16981 1.14672 4.00499 0.699951 3.89999L0.719951 3.80999H2.64995C2.91995 3.80999 3.12995 3.90999 3.19995 4.17999L3.61995 6.18999L3.74995 6.78999L4.92995 3.81999H6.20995L4.30995 8.16999H3.04995L1.97995 4.36999V4.38999ZM7.14995 8.18999H5.94995L6.69995 3.81999H7.89995L7.14995 8.18999ZM11.52 3.92999L11.36 4.87999L11.25 4.82999C11.04 4.73999 10.75 4.64999 10.35 4.65999C9.86995 4.65999 9.65995 4.84999 9.64995 5.03999C9.64995 5.23999 9.91995 5.36999 10.33 5.57999C11.03 5.87999 11.35 6.26999 11.35 6.76999C11.34 7.66999 10.52 8.24999 9.24995 8.24999C8.70995 8.24999 8.18995 8.14999 7.90995 8.02999L8.06995 7.03999L8.23995 7.10999C8.62995 7.27999 8.87995 7.34999 9.36995 7.34999C9.70995 7.34999 10.08 7.20999 10.09 6.91999C10.09 6.72999 9.92995 6.58999 9.45995 6.37999C9.00995 6.15999 8.39995 5.80999 8.40995 5.17999C8.40995 4.33999 9.25995 3.73999 10.44 3.73999C10.91 3.73999 11.29 3.83999 11.52 3.92999ZM13.12 6.64999H14.12L13.85 5.37999L13.76 4.99999L13.61 5.42999L13.13 6.64999H13.12ZM14.62 3.81999L15.58 8.18999H14.46L14.32 7.53999H12.78L12.52 8.18999H11.26L13.05 4.18999C13.18 3.88999 13.39 3.82999 13.68 3.82999H14.61V3.81999H14.62Z" fill="#1434CB"/>
</g>
<g clip-path="url(#clip1_112_448)">
<path d="M38 0H25C23.8954 0 23 0.89543 23 2V10C23 11.1046 23.8954 12 25 12H38C39.1046 12 40 11.1046 40 10V2C40 0.89543 39.1046 0 38 0Z" fill="#0A2540"/>
<path d="M28.9999 9.5999C30.9881 9.5999 32.5999 7.98813 32.5999 5.9999C32.5999 4.01168 30.9881 2.3999 28.9999 2.3999C27.0117 2.3999 25.3999 4.01168 25.3999 5.9999C25.3999 7.98813 27.0117 9.5999 28.9999 9.5999Z" fill="#ED0006"/>
<path d="M33.8 9.5999C35.7882 9.5999 37.4 7.98813 37.4 5.9999C37.4 4.01168 35.7882 2.3999 33.8 2.3999C31.8117 2.3999 30.2 4.01168 30.2 5.9999C30.2 7.98813 31.8117 9.5999 33.8 9.5999Z" fill="#F9A000"/>
<path d="M31.4 3.32007C31.7764 3.6577 32.0775 4.07086 32.2836 4.53262C32.4898 4.99438 32.5963 5.49439 32.5963 6.00007C32.5963 6.50575 32.4898 7.00576 32.2836 7.46752C32.0775 7.92928 31.7764 8.34243 31.4 8.68007C31.027 8.35019 30.727 7.94614 30.5191 7.49375C30.3111 7.04136 30.1998 6.55056 30.1923 6.05273C30.1848 5.55489 30.2812 5.06095 30.4753 4.60248C30.6695 4.14401 30.9572 3.73108 31.32 3.39007L31.4 3.32007Z" fill="#FF5D00"/>
</g>
<g clip-path="url(#clip2_112_448)">
<path d="M61 0H48C46.8954 0 46 0.89543 46 2V10C46 11.1046 46.8954 12 48 12H61C62.1046 12 63 11.1046 63 10V2C63 0.89543 62.1046 0 61 0Z" fill="#016FD0"/>
<path d="M55.3469 10.101V5.80103L62.9999 5.80803V6.99603L62.1149 7.94103L62.9999 8.89503V10.108H61.5879L60.8369 9.28003L60.0919 10.111L55.3469 10.101Z" fill="white"/>
<path d="M55.8579 9.6299V6.2749H58.7029V7.0469H56.7789V7.5719H58.6569V8.3319H56.7789V8.8469H58.7029V9.6299H55.8579Z" fill="#016FD0"/>
<path d="M58.689 9.6299L60.263 7.9499L58.689 6.2749H59.907L60.869 7.3379L61.834 6.2749H63V6.3009L61.459 7.9499L63 9.5819V9.6299H61.822L60.843 8.5559L59.874 9.6299H58.689Z" fill="#016FD0"/>
<path d="M55.7041 1.98511H57.5491L58.1971 3.45611V1.98511H60.4741L60.8671 3.08711L61.2611 1.98511H63.0001V6.28511H53.8091L55.7041 1.98511Z" fill="white"/>
<path d="M56.0501 2.44995L54.5601 5.79995H55.6001L55.8801 5.12995H57.4001L57.6801 5.79995H58.7301L57.2401 2.44995H56.0601H56.0501ZM56.1801 4.37995L56.6301 3.30995L57.0701 4.37995H56.1801Z" fill="#016FD0"/>
<path d="M58.7009 5.80393V2.45093L60.1369 2.45693L60.8749 4.51693L61.6189 2.45093H62.9999V5.80393L62.1109 5.81193V3.50893L61.2719 5.80393H60.4609L59.6039 3.50093V5.80393H58.7009Z" fill="#016FD0"/>
</g>
<g clip-path="url(#clip3_112_448)">
<path d="M84.5799 11.7499C85.2599 11.7499 85.8199 11.1999 85.8199 10.5099V1.39993C85.8199 1.07993 85.6799 0.759931 85.4499 0.529931C85.336 0.415285 85.2004 0.324422 85.0511 0.262621C84.9017 0.200821 84.7416 0.169314 84.5799 0.169931H70.4199C70.0899 0.179931 69.7799 0.299931 69.5499 0.529931C69.3171 0.768228 69.1847 1.08681 69.1799 1.41993V10.5099C69.1799 10.8299 69.3199 11.1499 69.5499 11.3899C69.7799 11.6199 70.0899 11.7499 70.4199 11.7499H84.5799Z" fill="white" stroke="black" stroke-opacity="0.2" stroke-width="0.5"/>
<path d="M77.9299 12.07H84.5799C85.3599 12.07 85.9899 11.45 85.9999 10.67V9C83.4888 10.4428 80.7651 11.4789 77.9299 12.07Z" fill="#F27712"/>
<path d="M85.4101 6.79H84.8101L84.1301 5.89H84.0601V6.79H83.5701V4.56H84.3001C84.8701 4.56 85.2001 4.79 85.2001 5.21C85.2001 5.56 84.9901 5.78 84.6301 5.85L85.4101 6.79ZM84.6901 5.23C84.6901 5.02 84.5201 4.9 84.2201 4.9H84.0701V5.58H84.2101C84.5201 5.58 84.6901 5.46 84.6901 5.23ZM81.8601 4.56H83.2401V4.93H82.3401V5.43H83.2101V5.81H82.3401V6.41H83.2401V6.79H81.8401V4.56H81.8601ZM80.2601 6.84L79.2001 4.54H79.7401L80.4101 6.05L81.0901 4.55H81.6201L80.5501 6.85H80.2701L80.2601 6.84ZM75.8001 6.84C75.0501 6.84 74.4601 6.33 74.4601 5.67C74.4601 5.02 75.0601 4.5 75.8101 4.5C76.0201 4.5 76.2001 4.54 76.4101 4.63V5.15C76.2468 4.99078 76.0281 4.90115 75.8001 4.9C75.3301 4.9 74.9701 5.24 74.9701 5.67C74.9701 6.11 75.3301 6.44 75.8201 6.44C76.0501 6.44 76.2201 6.37 76.4201 6.19V6.71C76.1901 6.81 76.0101 6.84 75.8001 6.84ZM74.3101 6.1C74.3101 6.53 73.9601 6.83 73.4301 6.83C73.0601 6.83 72.8001 6.7 72.5601 6.4L72.8901 6.14C72.9901 6.34 73.1901 6.44 73.4201 6.44C73.6401 6.44 73.8001 6.29 73.8001 6.12C73.8001 6.02 73.7501 5.94 73.6501 5.89C73.5501 5.84 73.4301 5.79 73.3101 5.76C72.8501 5.61 72.6901 5.46 72.6901 5.14C72.6901 4.78 73.0301 4.51 73.4801 4.51C73.7601 4.51 74.0101 4.59 74.2201 4.75L73.9701 5.05C73.9197 4.99368 73.8581 4.94856 73.7892 4.91756C73.7203 4.88655 73.6456 4.87035 73.5701 4.87C73.3601 4.87 73.2001 4.98 73.2001 5.12C73.2001 5.24 73.3001 5.3 73.5801 5.4C74.1501 5.58 74.3101 5.74 74.3101 6.1ZM71.9001 4.56H72.4001V6.79H71.9001V4.56ZM70.3001 6.79H69.5901V4.56H70.3101C71.1101 4.56 71.6601 5.02 71.6601 5.66C71.6601 6.01 71.5001 6.32 71.2101 6.53C70.9601 6.71 70.6901 6.79 70.3101 6.79H70.3001ZM70.8701 5.12C70.7101 4.99 70.5201 4.94 70.2001 4.94H70.0701V6.42H70.2101C70.5201 6.42 70.7101 6.36 70.8701 6.24C70.957 6.1748 71.0276 6.09025 71.0762 5.99305C71.1248 5.89585 71.1501 5.78867 71.1501 5.68C71.1501 5.57133 71.1248 5.46415 71.0762 5.36695C71.0276 5.26975 70.957 5.1852 70.8701 5.12Z" fill="black"/>
<path d="M77.7901 4.5C77.1501 4.5 76.6201 5.02 76.6201 5.65C76.6201 6.33 77.1201 6.85 77.7901 6.85C78.4501 6.85 78.9701 6.33 78.9701 5.67C78.9701 5.02 78.4601 4.5 77.7901 4.5Z" fill="#F27712"/>
</g>
<defs>
<clipPath id="clip0_112_448">
<rect width="17" height="12" fill="white"/>
</clipPath>
<clipPath id="clip1_112_448">
<rect width="17" height="12" fill="white" transform="translate(23)"/>
</clipPath>
<clipPath id="clip2_112_448">
<rect width="17" height="12" fill="white" transform="translate(46)"/>
</clipPath>
<clipPath id="clip3_112_448">
<rect width="17" height="12" fill="white" transform="translate(69)"/>
</clipPath>
</defs>
</svg>
