<svg width="19" height="14" viewBox="0 0 19 14" fill="none" xmlns="http://www.w3.org/2000/svg">
<g id="Frame">
<path id="Vector" d="M15 2H2C0.89543 2 0 2.89543 0 4V12C0 13.1046 0.89543 14 2 14H15C16.1046 14 17 13.1046 17 12V4C17 2.89543 16.1046 2 15 2Z" fill="#E6EBF1"/>
<path id="Vector_2" d="M14 4H3C2.44772 4 2 4.44772 2 5C2 5.55228 2.44772 6 3 6H14C14.5523 6 15 5.55228 15 5C15 4.44772 14.5523 4 14 4Z" fill="white"/>
<path id="Vector_3" d="M14.5 9C16.9853 9 19 6.98528 19 4.5C19 2.01472 16.9853 0 14.5 0C12.0147 0 10 2.01472 10 4.5C10 6.98528 12.0147 9 14.5 9Z" fill="#B4C2D0"/>
<path id="Vector_4" d="M12.4999 5.96V3.03H11.9999C11.9599 3.36 11.7999 3.49 11.4199 3.53L11.1799 3.54V4.05H11.8399V5.95H12.5099L12.4999 5.96ZM14.1099 6C14.7599 6 15.1799 5.6 15.1799 5.13C15.1799 4.77 14.9799 4.56 14.7199 4.46C14.8416 4.40938 14.945 4.32298 15.0164 4.21226C15.0879 4.10153 15.124 3.97171 15.1199 3.84C15.1199 3.36 14.7399 3 14.1299 3C13.4999 3 13.1099 3.4 13.0399 3.92L13.6599 3.99C13.6999 3.74 13.8599 3.56 14.0999 3.56C14.3299 3.56 14.4699 3.69 14.4699 3.88C14.4699 4.1 14.2999 4.2 14.0499 4.2H13.7899V4.74H14.0599C14.3299 4.74 14.5199 4.84 14.5199 5.07C14.5199 5.31 14.3399 5.44 14.0999 5.44C13.8499 5.44 13.6599 5.28 13.6199 4.99L12.9699 5.09C13.0499 5.69 13.5099 6 14.1099 6ZM16.6399 6C17.2399 6 17.7099 5.57 17.7099 4.98C17.7099 4.42 17.3499 4 16.7599 4C16.5599 4 16.3899 4.07 16.2799 4.16L16.3299 3.62H17.5299V3.04H15.8299L15.6899 4.64L16.2899 4.71C16.3599 4.61 16.4899 4.53 16.6599 4.53C16.9199 4.53 17.0799 4.73 17.0799 4.99C17.0799 5.26 16.8799 5.44 16.6299 5.44C16.3799 5.44 16.2099 5.27 16.1699 5L15.5199 5.1C15.6099 5.68 16.0399 6 16.6399 6Z" fill="white"/>
</g>
</svg>
