<svg width="17" height="12" viewBox="0 0 17 12" fill="none" xmlns="http://www.w3.org/2000/svg">
<g id="Frame">
<path id="Vector" d="M15.5799 11.7499C16.2599 11.7499 16.8199 11.1999 16.8199 10.5099V1.39993C16.8199 1.07993 16.6799 0.759931 16.4499 0.529931C16.336 0.415285 16.2004 0.324422 16.0511 0.262621C15.9017 0.200821 15.7416 0.169314 15.5799 0.169931H1.41993C1.08993 0.179931 0.779932 0.299931 0.549932 0.529931C0.317114 0.768228 0.184669 1.08681 0.179932 1.41993V10.5099C0.179932 10.8299 0.319932 11.1499 0.549932 11.3899C0.779932 11.6199 1.08993 11.7499 1.41993 11.7499H15.5799Z" fill="white" stroke="black" stroke-opacity="0.2" stroke-width="0.5"/>
<path id="Vector_2" d="M8.92993 12.07H15.5799C16.3599 12.07 16.9899 11.45 16.9999 10.67V9C14.4888 10.4428 11.7651 11.4789 8.92993 12.07Z" fill="#F27712"/>
<path id="Vector_3" d="M16.4101 6.79H15.8101L15.1301 5.89H15.0601V6.79H14.5701V4.56H15.3001C15.8701 4.56 16.2001 4.79 16.2001 5.21C16.2001 5.56 15.9901 5.78 15.6301 5.85L16.4101 6.79ZM15.6901 5.23C15.6901 5.02 15.5201 4.9 15.2201 4.9H15.0701V5.58H15.2101C15.5201 5.58 15.6901 5.46 15.6901 5.23ZM12.8601 4.56H14.2401V4.93H13.3401V5.43H14.2101V5.81H13.3401V6.41H14.2401V6.79H12.8401V4.56H12.8601ZM11.2601 6.84L10.2001 4.54H10.7401L11.4101 6.05L12.0901 4.55H12.6201L11.5501 6.85H11.2701L11.2601 6.84ZM6.80009 6.84C6.05009 6.84 5.46009 6.33 5.46009 5.67C5.46009 5.02 6.06009 4.5 6.81009 4.5C7.02009 4.5 7.20009 4.54 7.41009 4.63V5.15C7.24683 4.99078 7.02813 4.90115 6.80009 4.9C6.33009 4.9 5.97009 5.24 5.97009 5.67C5.97009 6.11 6.33009 6.44 6.82009 6.44C7.05009 6.44 7.22009 6.37 7.42009 6.19V6.71C7.19009 6.81 7.01009 6.84 6.80009 6.84ZM5.31009 6.1C5.31009 6.53 4.96009 6.83 4.43009 6.83C4.06009 6.83 3.80009 6.7 3.56009 6.4L3.89009 6.14C3.99009 6.34 4.19009 6.44 4.42009 6.44C4.64009 6.44 4.80009 6.29 4.80009 6.12C4.80009 6.02 4.75009 5.94 4.65009 5.89C4.55009 5.84 4.43009 5.79 4.31009 5.76C3.85009 5.61 3.69009 5.46 3.69009 5.14C3.69009 4.78 4.03009 4.51 4.48009 4.51C4.76009 4.51 5.01009 4.59 5.22009 4.75L4.97009 5.05C4.91972 4.99368 4.85809 4.94856 4.78919 4.91756C4.72029 4.88655 4.64564 4.87035 4.57009 4.87C4.36009 4.87 4.20009 4.98 4.20009 5.12C4.20009 5.24 4.30009 5.3 4.58009 5.4C5.15009 5.58 5.31009 5.74 5.31009 6.1ZM2.90009 4.56H3.40009V6.79H2.90009V4.56ZM1.30009 6.79H0.590088V4.56H1.31009C2.11009 4.56 2.66009 5.02 2.66009 5.66C2.66009 6.01 2.50009 6.32 2.21009 6.53C1.96009 6.71 1.69009 6.79 1.31009 6.79H1.30009ZM1.87009 5.12C1.71009 4.99 1.52009 4.94 1.20009 4.94H1.07009V6.42H1.21009C1.52009 6.42 1.71009 6.36 1.87009 6.24C1.95703 6.1748 2.02759 6.09025 2.07619 5.99305C2.12479 5.89585 2.15009 5.78867 2.15009 5.68C2.15009 5.57133 2.12479 5.46415 2.07619 5.36695C2.02759 5.26975 1.95703 5.1852 1.87009 5.12Z" fill="black"/>
<path id="Vector_4" d="M8.79012 4.5C8.15012 4.5 7.62012 5.02 7.62012 5.65C7.62012 6.33 8.12012 6.85 8.79012 6.85C9.45012 6.85 9.97012 6.33 9.97012 5.67C9.97012 5.02 9.46012 4.5 8.79012 4.5Z" fill="#F27712"/>
</g>
</svg>
