<svg width="17" height="12" viewBox="0 0 17 12" fill="none" xmlns="http://www.w3.org/2000/svg">
<g id="Frame">
<path id="Vector" d="M15 0H2C0.89543 0 0 0.89543 0 2V10C0 11.1046 0.89543 12 2 12H15C16.1046 12 17 11.1046 17 10V2C17 0.89543 16.1046 0 15 0Z" fill="#0A2540"/>
<path id="Vector_2" d="M5.9999 9.5999C7.98813 9.5999 9.5999 7.98813 9.5999 5.9999C9.5999 4.01168 7.98813 2.3999 5.9999 2.3999C4.01168 2.3999 2.3999 4.01168 2.3999 5.9999C2.3999 7.98813 4.01168 9.5999 5.9999 9.5999Z" fill="#ED0006"/>
<path id="Vector_3" d="M10.8 9.5999C12.7882 9.5999 14.4 7.98813 14.4 5.9999C14.4 4.01168 12.7882 2.3999 10.8 2.3999C8.81173 2.3999 7.19995 4.01168 7.19995 5.9999C7.19995 7.98813 8.81173 9.5999 10.8 9.5999Z" fill="#F9A000"/>
<path id="Vector_4" d="M8.39996 3.32007C8.77641 3.6577 9.0775 4.07086 9.28363 4.53262C9.48976 4.99438 9.59629 5.49439 9.59629 6.00007C9.59629 6.50575 9.48976 7.00576 9.28363 7.46752C9.0775 7.92928 8.77641 8.34243 8.39996 8.68007C8.02703 8.35019 7.72701 7.94614 7.51906 7.49375C7.31112 7.04136 7.19983 6.55056 7.1923 6.05273C7.18478 5.55489 7.28117 5.06095 7.47534 4.60248C7.66951 4.14401 7.95717 3.73108 8.31996 3.39007L8.39996 3.32007Z" fill="#FF5D00"/>
</g>
</svg>
