<svg width="17" height="12" viewBox="0 0 17 12" fill="none" xmlns="http://www.w3.org/2000/svg">
<path d="M1.59993 0.179932H15.3999C16.1899 0.179932 16.8199 0.809932 16.8199 1.58993V10.3299C16.8199 11.1099 16.1899 11.7499 15.4099 11.7499H1.58993C0.809932 11.7499 0.179932 11.1099 0.179932 10.3299V1.59993C0.179932 0.809932 0.799932 0.179932 1.58993 0.179932H1.59993Z" fill="white" stroke="black" stroke-opacity="0.2" stroke-width="0.5"/>
<path d="M1.97995 4.38999C1.57728 4.16981 1.14672 4.00499 0.699951 3.89999L0.719951 3.80999H2.64995C2.91995 3.80999 3.12995 3.90999 3.19995 4.17999L3.61995 6.18999L3.74995 6.78999L4.92995 3.81999H6.20995L4.30995 8.16999H3.04995L1.97995 4.36999V4.38999ZM7.14995 8.18999H5.94995L6.69995 3.81999H7.89995L7.14995 8.18999ZM11.52 3.92999L11.36 4.87999L11.25 4.82999C11.04 4.73999 10.75 4.64999 10.35 4.65999C9.86995 4.65999 9.65995 4.84999 9.64995 5.03999C9.64995 5.23999 9.91995 5.36999 10.33 5.57999C11.03 5.87999 11.35 6.26999 11.35 6.76999C11.34 7.66999 10.52 8.24999 9.24995 8.24999C8.70995 8.24999 8.18995 8.14999 7.90995 8.02999L8.06995 7.03999L8.23995 7.10999C8.62995 7.27999 8.87995 7.34999 9.36995 7.34999C9.70995 7.34999 10.08 7.20999 10.09 6.91999C10.09 6.72999 9.92995 6.58999 9.45995 6.37999C9.00995 6.15999 8.39995 5.80999 8.40995 5.17999C8.40995 4.33999 9.25995 3.73999 10.44 3.73999C10.91 3.73999 11.29 3.83999 11.52 3.92999ZM13.12 6.64999H14.12L13.85 5.37999L13.76 4.99999L13.61 5.42999L13.13 6.64999H13.12ZM14.62 3.81999L15.58 8.18999H14.46L14.32 7.53999H12.78L12.52 8.18999H11.26L13.05 4.18999C13.18 3.88999 13.39 3.82999 13.68 3.82999H14.61V3.81999H14.62Z" fill="#1434CB"/>
</svg>
