<svg width="27" height="27" viewBox="0 0 27 27" fill="none" xmlns="http://www.w3.org/2000/svg">
<path d="M25.1666 12.0415C24.8099 9.47517 23.6194 7.09728 21.7783 5.27412C19.9373 3.45097 17.5479 2.2837 14.9782 1.95212C12.4085 1.62055 9.80103 2.14306 7.5575 3.43917C5.31397 4.73529 3.55882 6.7331 2.56242 9.12486M1.83325 3.29152V9.12486H7.66658M1.83325 14.9582C2.1899 17.5245 3.38044 19.9024 5.22149 21.7256C7.06253 23.5487 9.45194 24.716 12.0216 25.0476C14.5914 25.3792 17.1988 24.8567 19.4423 23.5605C21.6859 22.2644 23.441 20.2666 24.4374 17.8749M25.1666 23.7082V17.8749H19.3333" stroke="white" stroke-width="3.33" stroke-linecap="round" stroke-linejoin="round"/>
</svg>
