<svg width="130" height="120" viewBox="0 0 130 120" fill="none" xmlns="http://www.w3.org/2000/svg">
<g clip-path="url(#clip0_550_3184)">
<path d="M1980 -1350H-200V350H1980V-1350Z" fill="#D8D8D8"/>
<path d="M130 0H0V13.3H130V0Z" fill="#DC4437"/>
<path d="M130 26.7002H0V40.0002H130V26.7002Z" fill="#DC4437"/>
<path d="M130 80H0V93.3H130V80Z" fill="#DC4437"/>
<path d="M130 106.7H0V120H130V106.7Z" fill="#DC4437"/>
<path d="M130 53.2998H0V66.5998H130V53.2998Z" fill="#DC4437"/>
<path d="M130 13.2998H0V26.5998H130V13.2998Z" fill="white"/>
<path d="M130 40H0V53.3H130V40Z" fill="white"/>
<path d="M130 93.2998H0V106.6H130V93.2998Z" fill="white"/>
<path d="M130 66.7002H0V80.0002H130V66.7002Z" fill="white"/>
<path d="M70 0H0V66.7H70V0Z" fill="#2A66B7"/>
<path d="M13.5 4L15.8 8.9L21 9.7L17.2 13.6L18.1 19L13.5 16.4L8.9 19L9.8 13.6L6 9.7L11.2 8.9L13.5 4Z" fill="white"/>
<path d="M34 4L36.3 8.9L41.5 9.7L37.8 13.6L38.6 19L34 16.4L29.4 19L30.2 13.6L26.5 9.7L31.7 8.9L34 4Z" fill="white"/>
<path d="M54.5 4L56.8 8.9L62 9.7L58.2 13.6L59.1 19L54.5 16.4L49.9 19L50.8 13.6L47 9.7L52.2 8.9L54.5 4Z" fill="white"/>
<path d="M24 24L26.3 28.9L31.5 29.7L27.8 33.6L28.6 39L24 36.4L19.4 39L20.2 33.6L16.5 29.7L21.7 28.9L24 24Z" fill="white"/>
<path d="M44.5 24L46.8 28.9L52 29.7L48.2 33.6L49.1 39L44.5 36.4L39.9 39L40.8 33.6L37 29.7L42.2 28.9L44.5 24Z" fill="white"/>
<path d="M13.5 45.2002L15.8 50.1002L21 50.9002L17.2 54.7002L18.1 60.2002L13.5 57.6002L8.9 60.2002L9.8 54.7002L6 50.9002L11.2 50.1002L13.5 45.2002Z" fill="white"/>
<path d="M34 45.2002L36.3 50.1002L41.5 50.9002L37.8 54.7002L38.6 60.2002L34 57.6002L29.4 60.2002L30.2 54.7002L26.5 50.9002L31.7 50.1002L34 45.2002Z" fill="white"/>
<path d="M54.5 45.2002L56.8 50.1002L62 50.9002L58.2 54.7002L59.1 60.2002L54.5 57.6002L49.9 60.2002L50.8 54.7002L47 50.9002L52.2 50.1002L54.5 45.2002Z" fill="white"/>
</g>
<defs>
<clipPath id="clip0_550_3184">
<rect width="130" height="120" fill="white"/>
</clipPath>
</defs>
</svg>
